<svg xmlns="http://www.w3.org/2000/svg" width="56" height="56" viewBox="0 0 56 56" fill="none"><rect x="4" y="4" width="48" height="48" rx="10" fill="#ECE9FE"></rect><path d="M18 28C18 33.5228 22.4772 38 28 38C29.6569 38 31 36.6569 31 35V34.5C31 34.0356 31 33.8034 31.0257 33.6084C31.2029 32.2622 32.2622 31.2029 33.6084 31.0257C33.8034 31 34.0356 31 34.5 31H35C36.6569 31 38 29.6569 38 28C38 22.4772 33.5228 18 28 18C22.4772 18 18 22.4772 18 28Z" stroke="#875BF7" stroke-width="2" stroke-linecap="round" stroke-linejoin="round"></path><path d="M23 29C23.5523 29 24 28.5523 24 28C24 27.4477 23.5523 27 23 27C22.4477 27 22 27.4477 22 28C22 28.5523 22.4477 29 23 29Z" stroke="#875BF7" stroke-width="2" stroke-linecap="round" stroke-linejoin="round"></path><path d="M32 25C32.5523 25 33 24.5523 33 24C33 23.4477 32.5523 23 32 23C31.4477 23 31 23.4477 31 24C31 24.5523 31.4477 25 32 25Z" stroke="#875BF7" stroke-width="2" stroke-linecap="round" stroke-linejoin="round"></path><path d="M26 24C26.5523 24 27 23.5523 27 23C27 22.4477 26.5523 22 26 22C25.4477 22 25 22.4477 25 23C25 23.5523 25.4477 24 26 24Z" stroke="#875BF7" stroke-width="2" stroke-linecap="round" stroke-linejoin="round"></path><rect x="4" y="4" width="48" height="48" rx="10" stroke="#F5F3FF" stroke-width="8"></rect></svg>