<svg xmlns="http://www.w3.org/2000/svg" width="57" height="56" viewBox="0 0 57 56" fill="none"><rect x="4.33325" y="4" width="48" height="48" rx="24" fill="#ECE9FE"></rect><path d="M26.8328 29.5002L37.3328 19.0002M26.9604 29.8282L29.5885 36.5862C29.82 37.1816 29.9358 37.4793 30.1026 37.5662C30.2472 37.6415 30.4194 37.6416 30.5641 37.5664C30.731 37.4797 30.8471 37.1822 31.0793 36.5871L37.6697 19.6994C37.8793 19.1622 37.9841 18.8936 37.9268 18.722C37.877 18.5729 37.76 18.456 37.611 18.4062C37.4393 18.3488 37.1708 18.4536 36.6336 18.6633L19.7458 25.2536C19.1508 25.4858 18.8532 25.602 18.7665 25.7689C18.6913 25.9135 18.6914 26.0858 18.7668 26.2304C18.8537 26.3972 19.1514 26.513 19.7467 26.7445L26.5047 29.3726C26.6256 29.4196 26.686 29.4431 26.7369 29.4794C26.782 29.5115 26.8214 29.551 26.8536 29.5961C26.8899 29.647 26.9134 29.7074 26.9604 29.8282Z" stroke="#7839EE" stroke-width="2" stroke-linecap="round" stroke-linejoin="round"></path><rect x="4.33325" y="4" width="48" height="48" rx="24" stroke="#F5F3FF" stroke-width="8"></rect></svg>