<svg xmlns="http://www.w3.org/2000/svg" width="56" height="56" viewBox="0 0 56 56" fill="none"><rect x="4" y="4" width="48" height="48" rx="10" fill="#ECE9FE"></rect><path d="M21.52 18.64L19.96 20.72C19.651 21.132 19.4965 21.338 19.5001 21.5104C19.5032 21.6604 19.5736 21.8012 19.6918 21.8937C19.8275 22 20.085 22 20.6 22H35.4C35.915 22 36.1725 22 36.3083 21.8937C36.4264 21.8012 36.4968 21.6604 36.4999 21.5104C36.5035 21.338 36.349 21.132 36.04 20.72L34.48 18.64M21.52 18.64C21.696 18.4053 21.784 18.288 21.8955 18.2034C21.9943 18.1284 22.1062 18.0725 22.2254 18.0384C22.36 18 22.5067 18 22.8 18H33.2C33.4933 18 33.64 18 33.7746 18.0384C33.8938 18.0725 34.0057 18.1284 34.1045 18.2034C34.216 18.288 34.304 18.4053 34.48 18.64M21.52 18.64L19.64 21.1467C19.4025 21.4633 19.2838 21.6216 19.1995 21.7959C19.1247 21.9506 19.0701 22.1143 19.0372 22.283C19 22.473 19 22.6709 19 23.0667L19 34.8C19 35.9201 19 36.4802 19.218 36.908C19.4097 37.2843 19.7157 37.5903 20.092 37.782C20.5198 38 21.0799 38 22.2 38L33.8 38C34.9201 38 35.4802 38 35.908 37.782C36.2843 37.5903 36.5903 37.2843 36.782 36.908C37 36.4802 37 35.9201 37 34.8V23.0667C37 22.6709 37 22.473 36.9628 22.283C36.9299 22.1143 36.8753 21.9506 36.8005 21.7959C36.7162 21.6216 36.5975 21.4633 36.36 21.1467L34.48 18.64M32 26C32 27.0609 31.5786 28.0783 30.8284 28.8284C30.0783 29.5786 29.0609 30 28 30C26.9391 30 25.9217 29.5786 25.1716 28.8284C24.4214 28.0783 24 27.0609 24 26" stroke="#875BF7" stroke-width="2" stroke-linecap="round" stroke-linejoin="round"></path><rect x="4" y="4" width="48" height="48" rx="10" stroke="#F5F3FF" stroke-width="8"></rect></svg>