<svg xmlns="http://www.w3.org/2000/svg" width="57" height="56" viewBox="0 0 57 56" fill="none"><rect x="4.33325" y="4" width="48" height="48" rx="24" fill="#ECE9FE"></rect><path d="M18.3333 28C18.3333 33.5228 22.8104 38 28.3333 38C29.9901 38 31.3333 36.6569 31.3333 35V34.5C31.3333 34.0356 31.3333 33.8034 31.3589 33.6084C31.5361 32.2622 32.5955 31.2029 33.9417 31.0257C34.1366 31 34.3688 31 34.8333 31H35.3333C36.9901 31 38.3333 29.6569 38.3333 28C38.3333 22.4772 33.8561 18 28.3333 18C22.8104 18 18.3333 22.4772 18.3333 28Z" stroke="#7839EE" stroke-width="2" stroke-linecap="round" stroke-linejoin="round"></path><path d="M23.3333 29C23.8855 29 24.3333 28.5523 24.3333 28C24.3333 27.4477 23.8855 27 23.3333 27C22.781 27 22.3333 27.4477 22.3333 28C22.3333 28.5523 22.781 29 23.3333 29Z" stroke="#7839EE" stroke-width="2" stroke-linecap="round" stroke-linejoin="round"></path><path d="M32.3333 25C32.8855 25 33.3333 24.5523 33.3333 24C33.3333 23.4477 32.8855 23 32.3333 23C31.781 23 31.3333 23.4477 31.3333 24C31.3333 24.5523 31.781 25 32.3333 25Z" stroke="#7839EE" stroke-width="2" stroke-linecap="round" stroke-linejoin="round"></path><path d="M26.3333 24C26.8855 24 27.3333 23.5523 27.3333 23C27.3333 22.4477 26.8855 22 26.3333 22C25.781 22 25.3333 22.4477 25.3333 23C25.3333 23.5523 25.781 24 26.3333 24Z" stroke="#7839EE" stroke-width="2" stroke-linecap="round" stroke-linejoin="round"></path><rect x="4.33325" y="4" width="48" height="48" rx="24" stroke="#F5F3FF" stroke-width="8"></rect></svg>