<svg xmlns="http://www.w3.org/2000/svg" width="57" height="56" viewBox="0 0 57 56" fill="none"><rect x="4.66675" y="4" width="48" height="48" rx="24" fill="#ECE9FE"></rect><path d="M38.1667 34L31.5239 28M25.8096 28L19.1668 34M18.6667 23L26.8317 28.7154C27.4928 29.1783 27.8234 29.4097 28.183 29.4993C28.5006 29.5785 28.8329 29.5785 29.1505 29.4993C29.5101 29.4097 29.8407 29.1783 30.5018 28.7154L38.6667 23M23.4667 36H33.8667C35.5469 36 36.387 36 37.0287 35.673C37.5932 35.3854 38.0521 34.9265 38.3398 34.362C38.6667 33.7202 38.6667 32.8802 38.6667 31.2V24.8C38.6667 23.1198 38.6667 22.2798 38.3398 21.638C38.0521 21.0735 37.5932 20.6146 37.0287 20.327C36.387 20 35.5469 20 33.8667 20H23.4667C21.7866 20 20.9465 20 20.3048 20.327C19.7403 20.6146 19.2813 21.0735 18.9937 21.638C18.6667 22.2798 18.6667 23.1198 18.6667 24.8V31.2C18.6667 32.8802 18.6667 33.7202 18.9937 34.362C19.2813 34.9265 19.7403 35.3854 20.3048 35.673C20.9465 36 21.7866 36 23.4667 36Z" stroke="#7839EE" stroke-width="2" stroke-linecap="round" stroke-linejoin="round"></path><rect x="4.66675" y="4" width="48" height="48" rx="24" stroke="#F5F3FF" stroke-width="8"></rect></svg>