<svg xmlns="http://www.w3.org/2000/svg" width="56" height="56" viewBox="0 0 56 56" fill="none"><rect x="4" y="4" width="48" height="48" rx="24" fill="#ECE9FE"></rect><path d="M28 16C25.6265 16 23.3063 16.7039 21.3329 18.0226C19.3594 19.3413 17.8214 21.2156 16.9132 23.4084C16.005 25.6013 15.7675 28.0143 16.2308 30.3421C16.694 32.67 17.8372 34.8081 19.5157 36.4863C21.1942 38.1644 23.3327 39.307 25.6606 39.7698C27.9886 40.2325 30.4015 39.9944 32.5941 39.0857C34.7868 38.1771 36.6607 36.6386 37.979 34.6648C39.2972 32.6911 40.0006 30.3707 40 27.9972C40 26.4215 39.6896 24.8612 39.0865 23.4054C38.4834 21.9497 37.5995 20.627 36.4851 19.5129C35.3708 18.3988 34.0479 17.5152 32.592 16.9124C31.1361 16.3097 29.5757 15.9996 28 16ZM32.9371 29.1284C32.547 29.6856 32.4356 30.0924 32.1012 32.3074C31.9759 33.1432 31.8533 33.8509 31.7251 34.436C31.7251 34.436 31.6137 35.2106 31.5384 35.5895C31.4094 36.184 31.2276 36.7659 30.9951 37.3281C30.7639 37.9215 30.4379 37.6652 30.4017 37.4702L30.1231 36.6872C30.115 36.6705 30.1094 36.6527 30.1063 36.6343C30.0147 36.3312 29.9632 36.0174 29.9531 35.7009C29.9336 35.2552 29.9503 34.3887 29.9503 34.3887C29.9429 33.9522 29.9633 33.5158 30.0116 33.082C30.2206 31.335 30.1955 30.8892 29.8667 30.4017C29.7333 30.1729 29.5532 29.9748 29.3382 29.8202C29.1231 29.6656 28.8779 29.5581 28.6185 29.5045C28.4179 29.4711 27.1586 29.4432 25.8157 29.4488C24.5981 29.4488 22.9821 29.407 22.0237 29.3346C21.4665 29.3346 20.9343 29.3346 20.391 29.3067C19.7645 29.2414 19.1435 29.1315 18.5326 28.9779C15.4372 28.443 18.4072 28.2229 18.8112 28.0111C19.2684 27.7935 19.7611 27.6604 20.2656 27.6183C20.6696 27.5709 21.0736 27.5236 21.4804 27.4818H21.5835C22.3747 27.4428 23.4279 27.4093 24.4059 27.3926C25.9717 27.3926 27.5737 27.3118 27.9694 27.2728C28.8052 27.1753 29.329 26.8772 29.4404 26.4648C29.5603 26.0051 29.212 24.9714 28.326 23.1493C28.0474 22.5921 27.8245 22.1212 27.6489 21.7367C27.4651 21.4079 27.2812 21.0792 27.0917 20.7448C26.8502 20.1965 26.6382 19.6357 26.4565 19.0648C25.8686 17.5658 27.0527 18.7862 27.4428 18.9951C28.039 19.2542 28.9501 20.352 29.6383 21.6893C31.7948 25.9104 31.9981 26.2586 32.6752 26.7992C33.2324 27.2645 33.3216 27.3787 33.3634 27.7743C33.4163 28.287 33.3244 28.5656 32.9371 29.1284ZM37.2166 26.476C36.7987 26.866 35.9824 27.2032 35.2301 27.44C35.1225 27.4783 35.0082 27.4941 34.8943 27.4865C34.7803 27.4789 34.6692 27.4481 34.5676 27.3959C34.4661 27.3437 34.3763 27.2712 34.3038 27.1829C34.2313 27.0947 34.1777 26.9925 34.1463 26.8827C34.0488 26.501 34.3859 26.1472 34.8177 25.8964C34.9827 25.803 35.1562 25.7256 35.336 25.6652L35.6814 25.551C36.5173 25.2723 37.5064 25.1665 37.8658 25.3977C38.2252 25.629 37.5928 26.1249 37.2166 26.476Z" fill="#491C96"></path><rect x="4" y="4" width="48" height="48" rx="24" stroke="#F5F3FF" stroke-width="8"></rect></svg>